<svg id="Layer_1" data-name="Layer 1" xmlns="http://www.w3.org/2000/svg" viewBox="0 0 178.77 190.75"><defs><style>.cls-1{fill:#c114ec;}</style></defs><title>Untitled-3</title><path class="cls-1" d="M189.32,104.86c-.32,22.86-7.67,43.11-22.88,60.28a86.16,86.16,0,0,1-49.13,28.24c-23.88,4.63-46.22.33-66.5-13.16-19.35-12.86-31.76-30.84-37.52-53.36a87.69,87.69,0,0,1-2.47-28.59A89.73,89.73,0,0,1,32,46,90.79,90.79,0,0,1,60.21,23.76c6.57-3.4,12.56-.37,15,5.7a12,12,0,0,1-5.5,15.27A66.88,66.88,0,0,0,34.42,92.38,66,66,0,0,0,40,134.24c9.39,19.08,24.47,31.48,45.24,36.28a66.13,66.13,0,0,0,78.3-45.7c6.9-23.38,2.52-44.83-12.92-63.8a60.08,60.08,0,0,0-20.4-16.44,11.8,11.8,0,0,1,2.79-22,11.49,11.49,0,0,1,7.76,1.05c7.09,3.47,13.14,8.32,18.83,13.74a95.82,95.82,0,0,1,19.29,25,90.69,90.69,0,0,1,9.42,29A94.29,94.29,0,0,1,189.32,104.86Z" transform="translate(-10.56 -4.42)"/><path class="cls-1" d="M88,60.11q0-21.68,0-43.33A11.65,11.65,0,0,1,94.08,6a11.88,11.88,0,0,1,17.73,9.46q.06.75.06,1.5,0,43.19,0,86.39a12.16,12.16,0,0,1-8.5,11.92A11.92,11.92,0,0,1,88,103.68c0-5.61,0-11.22,0-16.83V60.11Z" transform="translate(-10.56 -4.42)"/></svg>